<?xml version="1.0" encoding="UTF-8" standalone="no"?>
<svg
   xmlns:dc="http://purl.org/dc/elements/1.1/"
   xmlns:cc="http://creativecommons.org/ns#"
   xmlns:rdf="http://www.w3.org/1999/02/22-rdf-syntax-ns#"
   xmlns:svg="http://www.w3.org/2000/svg"
   xmlns="http://www.w3.org/2000/svg"
   xmlns:sodipodi="http://sodipodi.sourceforge.net/DTD/sodipodi-0.dtd"
   xmlns:inkscape="http://www.inkscape.org/namespaces/inkscape"
   width="6mm"
   height="6mm"
   viewBox="0 0 6 6"
   version="1.1"
   id="svg48213"
   inkscape:version="1.0.1 (3bc2e813f5, 2020-09-07)"
   sodipodi:docname="Line_overturned_anticline.svg">
  <defs
     id="defs48207" />
  <sodipodi:namedview
     id="base"
     pagecolor="#ffffff"
     bordercolor="#666666"
     borderopacity="1.0"
     inkscape:pageopacity="0.0"
     inkscape:pageshadow="2"
     inkscape:zoom="14.205444"
     inkscape:cx="10.260958"
     inkscape:cy="5.4698118"
     inkscape:document-units="mm"
     inkscape:current-layer="layer1"
     showgrid="false"
     inkscape:window-width="1920"
     inkscape:window-height="1017"
     inkscape:window-x="1912"
     inkscape:window-y="-8"
     inkscape:window-maximized="1"
     inkscape:document-rotation="0" />
  <metadata
     id="metadata48210">
    <rdf:RDF>
      <cc:Work
         rdf:about="">
        <dc:format>image/svg+xml</dc:format>
        <dc:type
           rdf:resource="http://purl.org/dc/dcmitype/StillImage" />
        <dc:title></dc:title>
      </cc:Work>
    </rdf:RDF>
  </metadata>
  <g
     inkscape:label="Layer 1"
     inkscape:groupmode="layer"
     id="layer1"
     transform="translate(-102.83265,-145.5925)">
    <g
       id="g724"
       transform="matrix(0.09590793,0,0,0.26458333,-10.937173,6.3101658)"
       style="fill:#eb008a;fill-opacity:1">
      <path
         d="m 1186.24,536.96002 h 62.56 V 538.56 h -62.56 z"
         style="fill:#eb008a;fill-opacity:1;fill-rule:nonzero;stroke:none"
         id="path726" />
    </g>
    <g
       id="g880"
       transform="matrix(2.6514543,0,0,2.6514543,-161.58864,-237.58751)">
      <g
         id="g34717"
         transform="matrix(0.26458333,0,0,0.26458333,100.32919,144.99221)">
        <path
           d="m 0,0 c 0,0 0,0.96 0,1.92 0,1.12 0,2.24 0,2.4 v 0 c 0,0.32 0,0.8 0.32,1.28 0.32,0.48 0.8,0.8 1.6,0.8 H 2.08 C 3.04,6.4 3.52,5.92 3.84,5.44 4.16,4.96 4.16,4.48 4.16,4.32 v 0 0 0 0 L 4,4.16 c 0,0 0,0 0,0 H 3.68 V 4.32 H 3.84 3.68 v 0 H 3.84 3.68 4 3.68 v 0 H 4 3.68 4 3.68 v 0 H 4 3.68 4 L 3.84,4.16 3.68,4.32 H 4 L 3.84,4.16 4,4.32 V 4.16 c -0.16,0 -0.16,0 -0.16,0 L 4,4.32 V 4.16 4.32 4.16 4.16 4.32 4.16 4.32 H 4.16 L 4,4.16 V 4.32 H 4.16 4 4.16 v 0 H 4 4.16 4 4.16 v 0 H 4 4.16 c 0,0 0,-0.48 0,-0.96 0,-1.44 0,-3.36 0,-3.36 L 3.68,0 c 0,0 0,1.92 0,3.36 0,0.16 0,0.48 0,0.64 0,0.16 0,0.16 0,0.32 v 0 0 0 0 0.16 h 0.16 v 0 H 4 c 0,0 0,0 0,0 h 0.16 v -0.16 0 H 4 V 4.48 4.32 L 3.84,4.48 c 0,0 0,0 0.16,0 V 4.32 L 3.84,4.48 4,4.32 3.68,4.48 H 3.84 L 4,4.32 3.68,4.48 4,4.32 H 3.68 V 4.48 L 4,4.32 H 3.68 4 3.68 v 0 H 4 3.68 v 0 c 0,0.16 0,0.48 -0.16,0.96 C 3.2,5.76 2.88,6.08 2.08,6.08 H 1.92 C 1.28,6.08 0.8,5.76 0.64,5.44 0.32,5.12 0.32,4.64 0.32,4.32 v 0 c 0,-0.48 0,-4.32 0,-4.32 z"
           style="fill:#ec008d;fill-opacity:1;fill-rule:nonzero;stroke:none"
           id="path34719" />
      </g>
      <g
         id="g34721"
         transform="matrix(0.26458333,0,0,0.26458333,101.34518,144.61121)">
        <path
           d="m 0,0 1.12,2.72 c 0,0 -0.16,-0.32 -0.96,-0.32 -0.64,0 -1.12,0.32 -1.12,0.32 z"
           style="fill:#ec008d;fill-opacity:1;fill-rule:nonzero;stroke:none"
           id="path34723" />
      </g>
      <g
         id="g34725"
         transform="matrix(0.26458333,0,0,0.26458333,100.37151,144.61121)">
        <path
           d="M 0,0 0.96,2.72 C 0.96,2.72 0.8,2.56 0,2.4 c -0.64,0 -1.12,0.32 -1.12,0.32 z"
           style="fill:#ec008d;fill-opacity:1;fill-rule:nonzero;stroke:none"
           id="path34727" />
      </g>
    </g>
  </g>
</svg>
